<svg width="53" height="51" viewBox="0 0 53 51" fill="none" xmlns="http://www.w3.org/2000/svg">
<path d="M19.5592 0.824793C16.7735 2.61444 14.8905 5.77355 14.8905 9.38396C14.8905 12.9944 16.7736 16.1535 19.6059 17.9431C14.8283 17.9431 11 14.1149 11 9.38396C11 7.11393 11.9018 4.93687 13.5069 3.33172C15.1121 1.72656 17.2891 0.824793 19.5592 0.824793V0.824793ZM37.5646 3.15911L39.7899 5.3845L15.5597 29.6147L13.3343 27.3893L37.5646 3.15911ZM27.9472 6.94071L25.644 5.49343L23.403 7.04964L24.0566 4.40408L21.8935 2.7545L24.6169 2.56775L25.5195 0L26.5621 2.53663L29.2544 2.58331L27.1535 4.34183L27.9472 6.94071ZM22.8117 12.5586L21.0064 11.4226L19.2635 12.6364L19.7926 10.5822L18.0963 9.29059L20.2128 9.15053L20.9131 7.14302L21.7067 9.11941L23.8232 9.1661L22.1892 10.52L22.8117 12.5586V12.5586ZM37.4556 18.7212C37.4556 20.9913 36.5539 23.1683 34.9487 24.7735C33.3435 26.3786 31.1665 27.2804 28.8964 27.2804C26.9979 27.2804 25.2393 26.6579 23.8232 25.6153L35.7905 13.648C36.8331 15.0641 37.4556 16.8227 37.4556 18.7212V18.7212ZM30.6083 28.9611L34.919 27.1715L34.5455 32.3848L30.6083 28.9611V28.9611ZM37.3467 24.7593L39.1363 20.4486L42.56 24.4014L37.3467 24.7593V24.7593ZM39.1363 17.0405L37.3622 12.7143L42.56 13.0878L39.1363 17.0405ZM22.8739 27.1715L27.1846 28.9611L23.2474 32.3692L22.8739 27.1715Z" fill="#9D9D9D"/>
<path d="M4.38281 45.3359C4.79948 45.3359 5.13802 45.2214 5.39844 44.9922C5.65885 44.763 5.79427 44.4583 5.80469 44.0781H7.92188C7.91667 44.651 7.76042 45.1771 7.45312 45.6562C7.14583 46.1302 6.72396 46.5 6.1875 46.7656C5.65625 47.026 5.06771 47.1562 4.42188 47.1562C3.21354 47.1562 2.26042 46.7734 1.5625 46.0078C0.864583 45.237 0.515625 44.1745 0.515625 42.8203V42.6719C0.515625 41.3698 0.861979 40.3307 1.55469 39.5547C2.2474 38.7786 3.19792 38.3906 4.40625 38.3906C5.46354 38.3906 6.3099 38.6927 6.94531 39.2969C7.58594 39.8958 7.91146 40.6953 7.92188 41.6953H5.80469C5.79427 41.2578 5.65885 40.9036 5.39844 40.6328C5.13802 40.3568 4.79427 40.2188 4.36719 40.2188C3.84115 40.2188 3.44271 40.4115 3.17188 40.7969C2.90625 41.1771 2.77344 41.7969 2.77344 42.6562V42.8906C2.77344 43.7604 2.90625 44.3854 3.17188 44.7656C3.4375 45.1458 3.84115 45.3359 4.38281 45.3359ZM11.4141 39.4688C12.013 38.75 12.7656 38.3906 13.6719 38.3906C15.5052 38.3906 16.4349 39.4557 16.4609 41.5859V47H14.2031V41.6484C14.2031 41.1641 14.099 40.8073 13.8906 40.5781C13.6823 40.3438 13.3359 40.2266 12.8516 40.2266C12.1901 40.2266 11.7109 40.4818 11.4141 40.9922V47H9.15625V35H11.4141V39.4688ZM23.0625 47C22.9583 46.7969 22.8828 46.5443 22.8359 46.2422C22.2891 46.8516 21.5781 47.1562 20.7031 47.1562C19.875 47.1562 19.1875 46.9167 18.6406 46.4375C18.099 45.9583 17.8281 45.3542 17.8281 44.625C17.8281 43.7292 18.1589 43.0417 18.8203 42.5625C19.487 42.0833 20.4479 41.8411 21.7031 41.8359H22.7422V41.3516C22.7422 40.9609 22.6406 40.6484 22.4375 40.4141C22.2396 40.1797 21.9245 40.0625 21.4922 40.0625C21.112 40.0625 20.8125 40.1536 20.5938 40.3359C20.3802 40.5182 20.2734 40.7682 20.2734 41.0859H18.0156C18.0156 40.5964 18.1667 40.1432 18.4688 39.7266C18.7708 39.3099 19.1979 38.9844 19.75 38.75C20.3021 38.5104 20.9219 38.3906 21.6094 38.3906C22.651 38.3906 23.4766 38.6536 24.0859 39.1797C24.7005 39.7005 25.0078 40.4349 25.0078 41.3828V45.0469C25.013 45.849 25.125 46.4557 25.3438 46.8672V47H23.0625ZM21.1953 45.4297C21.5286 45.4297 21.8359 45.3568 22.1172 45.2109C22.3984 45.0599 22.6068 44.8594 22.7422 44.6094V43.1562H21.8984C20.7682 43.1562 20.1667 43.5469 20.0938 44.3281L20.0859 44.4609C20.0859 44.7422 20.1849 44.974 20.3828 45.1562C20.5807 45.3385 20.8516 45.4297 21.1953 45.4297ZM28.8203 38.5469L28.8906 39.5234C29.4948 38.7682 30.3047 38.3906 31.3203 38.3906C32.2161 38.3906 32.8828 38.6536 33.3203 39.1797C33.7578 39.7057 33.9818 40.4922 33.9922 41.5391V47H31.7344V41.5938C31.7344 41.1146 31.6302 40.7682 31.4219 40.5547C31.2135 40.3359 30.8672 40.2266 30.3828 40.2266C29.7474 40.2266 29.2708 40.4974 28.9531 41.0391V47H26.6953V38.5469H28.8203ZM35.3828 42.7109C35.3828 41.4141 35.6901 40.3698 36.3047 39.5781C36.9245 38.7865 37.7578 38.3906 38.8047 38.3906C39.7318 38.3906 40.4531 38.7083 40.9688 39.3438L41.0625 38.5469H43.1094V46.7188C43.1094 47.4583 42.9401 48.1016 42.6016 48.6484C42.2682 49.1953 41.7969 49.612 41.1875 49.8984C40.5781 50.1849 39.8646 50.3281 39.0469 50.3281C38.4271 50.3281 37.8229 50.2031 37.2344 49.9531C36.6458 49.7083 36.2005 49.3906 35.8984 49L36.8984 47.625C37.4609 48.2552 38.1432 48.5703 38.9453 48.5703C39.5443 48.5703 40.0104 48.4089 40.3438 48.0859C40.6771 47.7682 40.8438 47.3151 40.8438 46.7266V46.2734C40.3229 46.862 39.638 47.1562 38.7891 47.1562C37.7734 47.1562 36.9505 46.7604 36.3203 45.9688C35.6953 45.1719 35.3828 44.1172 35.3828 42.8047V42.7109ZM37.6406 42.875C37.6406 43.6406 37.7943 44.2422 38.1016 44.6797C38.4089 45.112 38.8307 45.3281 39.3672 45.3281C40.0547 45.3281 40.5469 45.0703 40.8438 44.5547V41C40.5417 40.4844 40.0547 40.2266 39.3828 40.2266C38.8411 40.2266 38.4141 40.4479 38.1016 40.8906C37.7943 41.3333 37.6406 41.9948 37.6406 42.875ZM48.7422 47.1562C47.5026 47.1562 46.4922 46.776 45.7109 46.0156C44.9349 45.2552 44.5469 44.2422 44.5469 42.9766V42.7578C44.5469 41.9089 44.7109 41.151 45.0391 40.4844C45.3672 39.8125 45.8307 39.2969 46.4297 38.9375C47.0339 38.5729 47.7214 38.3906 48.4922 38.3906C49.6484 38.3906 50.5573 38.7552 51.2188 39.4844C51.8854 40.2135 52.2188 41.2474 52.2188 42.5859V43.5078H46.8359C46.9089 44.0599 47.1276 44.5026 47.4922 44.8359C47.862 45.1693 48.3281 45.3359 48.8906 45.3359C49.7604 45.3359 50.4401 45.0208 50.9297 44.3906L52.0391 45.6328C51.7005 46.112 51.2422 46.487 50.6641 46.7578C50.0859 47.0234 49.4453 47.1562 48.7422 47.1562ZM48.4844 40.2188C48.0365 40.2188 47.6719 40.3698 47.3906 40.6719C47.1146 40.974 46.9375 41.4062 46.8594 41.9688H50V41.7891C49.9896 41.2891 49.8542 40.9036 49.5938 40.6328C49.3333 40.3568 48.9635 40.2188 48.4844 40.2188Z" fill="#9D9D9D"/>
</svg>
